<?xml version="1.0" encoding="UTF-8" standalone="no"?>
<svg
   xmlns:dc="http://purl.org/dc/elements/1.1/"
   xmlns:cc="http://creativecommons.org/ns#"
   xmlns:rdf="http://www.w3.org/1999/02/22-rdf-syntax-ns#"
   xmlns:svg="http://www.w3.org/2000/svg"
   xmlns="http://www.w3.org/2000/svg"
   xmlns:sodipodi="http://sodipodi.sourceforge.net/DTD/sodipodi-0.dtd"
   xmlns:inkscape="http://www.inkscape.org/namespaces/inkscape"
   version="1.1"
   id="Layer_1"
   x="0px"
   y="0px"
   width="681"
   height="361"
   viewBox="0 0 681 361"
   enable-background="new 0 0 612 792"
   xml:space="preserve">
<path
   style="fill:#ed1c24;fill-rule:evenodd"
   id="path7"
   d="m 505.34448,360.99998 c -34.86041,-20.70959 -57.39806,-61.33138 -57.39806,-104.32013 0,-43.24724 22.01746,-81.77648 56.87517,-102.74447 l 0,0 H 43.50884 L 0,360.99998 h 505.34448 l 0,0 z"
   clip-rule="evenodd" /><path
   style="fill:#ed1c24;fill-rule:evenodd"
   id="path9"
   d="m 673.61525,247.24684 c -4.9796,-51.37219 -49.53472,-91.47399 -100.9069,-91.47399 -48.75624,0 -89.11964,32.76785 -99.34053,78.37254 0,0 10.74708,10.74709 45.60469,10.74709 30.4103,1.05408 57.13967,-19.65991 96.45679,-19.65991 30.401,-0.003 46.38938,14.41252 58.18595,22.01427 l 0,0 0,0 z"
   clip-rule="evenodd" /><path
   style="fill:#00529c;fill-rule:evenodd"
   id="path11"
   d="m 670.7316,276.33986 c -10.74108,-6.02918 -23.06394,-11.27048 -44.02582,-11.27048 -36.17169,0 -59.23873,19.13382 -98.56195,19.13382 -35.64229,0 -55.82239,-19.13382 -55.82239,-19.13382 4.45021,50.84599 47.96515,90.43091 100.38691,90.43091 48.48524,0 89.11033,-32.76785 98.02325,-79.16043 l 0,0 0,0 z"
   clip-rule="evenodd" /><path
   style="fill:#00529c;fill-rule:evenodd"
   id="path13"
   d="M 612.27416,136.96442 641.95747,0.01034111 H 681 L 650.9054,136.96442 h -38.63124 l 0,0 z M 153.95045,0.01034111 c 17.88984,0 30.49369,1.61086799 37.40956,6.82676499 10.16969,8.0355409 13.82552,20.8848889 9.7584,38.1526389 -3.25383,16.06499 -12.20186,31.32598 -24.40051,38.95663 -13.01225,8.03554 -24.80571,7.63675 -41.48308,7.63675 H 96.19829 l -9.7644,45.381295 H 47.39736 L 77.08067,0.01034111 h 76.86978 l 0,0 z m -44.73991,32.12996389 -5.69119,26.50607 h 30.50299 c 17.07946,0 23.98923,2.81355 27.24306,-13.25463 3.25384,-13.65343 -3.25383,-13.25144 -22.77355,-13.25144 h -29.28131 l 0,0 z m 139.49033,19.67611 h 76.86658 l -7.32106,32.93075 h -76.45528 c -4.47241,19.283405 -5.2796,18.074535 17.48465,18.074535 h 59.78112 l -7.31496,34.13952 H 252.366 c -13.82553,0 -34.97541,0.39599 -45.14181,-8.03224 -12.20196,-9.64031 -8.53673,-28.51563 -2.03216,-57.835245 10.98008,-51.410484 19.11762,-71.08659389 71.57768,-71.08659389 h 65.06391 L 334.92386,32.137105 h -60.6008 c -22.37155,0.003 -20.73849,-2.00966 -25.62219,19.67931 l 0,0 z M 428.8606,0.01034111 c 18.30114,0 30.50299,1.61086799 37.41886,6.82676499 10.1604,8.0355409 13.81622,20.8848889 10.1604,38.1526389 -3.65593,16.06499 -12.60385,31.32598 -24.40052,38.95663 -13.00904,8.03554 -25.2109,7.63675 -41.47988,7.63675 h -39.03652 l -10.1697,45.381295 H 322.31681 L 352.40851,0.01034111 h 76.45209 l 0,0 z M 384.12679,32.140305 378.4295,58.646375 h 30.91149 c 16.67416,0 23.59003,2.81355 27.24586,-13.25463 2.84544,-13.65343 -3.65583,-13.25144 -23.17875,-13.25144 h -29.28131 l 0,0 z m 165.11252,1.60767 c -14.64531,0 -21.14988,-1.21208 -23.17884,8.83012 -2.44345,9.63711 3.65593,9.23832 15.4432,9.23832 h 39.45101 c 35.3899,0 34.57022,23.69853 30.09781,44.17862 -6.09928,28.914325 -28.05635,40.966185 -59.37583,40.966185 h -82.95665 l 7.32105,-33.33884 h 71.97968 c 14.63601,0 21.14988,2.00966 23.58403,-8.830115 2.44345,-10.84909 -4.06112,-9.64031 -17.48465,-9.64031 h -41.07479 c -28.05954,0 -31.72467,-19.27722 -26.43258,-42.97575 5.68799,-26.904866 25.6222,-42.16906389 57.33767,-42.16906389 h 84.58672 L 621.22219,33.747975 h -71.98288 l 0,0 z"
   clip-rule="evenodd" /><path
   style="fill:#00529c;fill-rule:evenodd"
   id="path15"
   d="m 386.89883,121.11964 c 1.51527,0 2.98614,0.38299 4.44061,1.15897 1.44497,0.77599 2.57445,1.90106 3.37514,3.34944 0.79198,1.44827 1.21527,2.96034 1.21527,4.53931 0,1.55357 -0.38899,3.04984 -1.19268,4.48521 -0.77898,1.44187 -1.91076,2.55835 -3.34293,3.34953 -1.43547,0.78499 -2.93174,1.19268 -4.49181,1.19268 -1.57247,0 -3.06874,-0.389 -4.50421,-1.19268 -1.43537,-0.77898 -2.55505,-1.91086 -3.35263,-3.34953 -0.78499,-1.43537 -1.19598,-2.93164 -1.19598,-4.48521 0,-1.57897 0.39899,-3.09104 1.21538,-4.53931 0.79798,-1.45158 1.93656,-2.56155 3.38163,-3.34944 1.44187,-0.76598 2.93434,-1.15897 4.45301,-1.15897 l 0,0 z m 0,1.49307 c -1.27897,0 -2.51355,0.33099 -3.71313,0.99398 -1.21207,0.66298 -2.14665,1.58336 -2.82934,2.78564 -0.68899,1.21008 -1.02798,2.46915 -1.02798,3.78973 0,1.29827 0.34099,2.53935 1.01578,3.73242 0.67599,1.19268 1.59837,2.12776 2.80074,2.79705 1.19928,0.67598 2.44056,1.01578 3.75463,1.01578 1.29837,0 2.54265,-0.338 3.74213,-1.01578 1.20537,-0.67599 2.12775,-1.60397 2.79424,-2.79705 0.67299,-1.19267 1.01018,-2.43415 1.01018,-3.73242 0,-1.32058 -0.34099,-2.57965 -1.02218,-3.78973 -0.68199,-1.20758 -1.60797,-2.13446 -2.82324,-2.78564 -1.20278,-0.66299 -2.44345,-0.99398 -3.69423,-0.99398 l 0,0 z m -3.98082,12.54945 v -9.73271 h 3.34613 c 1.14518,0 1.97456,0.07 2.48185,0.28299 0.48899,0.165 0.92799,0.47299 1.22168,0.96499 0.31499,0.43099 0.44099,0.95298 0.44099,1.42547 0,0.71498 -0.26999,1.32927 -0.75298,1.85636 -0.48299,0.52599 -1.18508,0.80798 -2.01926,0.86998 0.34799,0.122 0.63698,0.322 0.80798,0.49399 0.38999,0.38 0.84698,1.03358 1.44127,1.93016 l 1.18328,1.90437 h -1.91836 l -0.83699,-1.53647 c -0.68898,-1.20688 -1.22817,-1.95976 -1.64587,-2.25976 -0.29899,-0.24799 -0.71098,-0.33799 -1.26327,-0.33799 h -0.90498 v 4.13072 h -1.57877 l 0,0 z m 1.57567,-5.47399 h 1.90756 c 0.90598,0 1.52817,-0.119 1.85356,-0.402 0.331,-0.28299 0.47999,-0.64398 0.47999,-1.07798 0,-0.29899 -0.07,-0.55198 -0.26399,-0.76598 -0.132,-0.248 -0.37699,-0.39299 -0.67299,-0.48299 -0.29599,-0.09 -0.79198,-0.149 -1.57787,-0.149 h -1.78076 v 2.93814 l 0,0 z"
   clip-rule="evenodd" />
</svg>